<?xml version="1.0" encoding="UTF-8"?>
<svg xmlns="http://www.w3.org/2000/svg" xmlns:dc="http://purl.org/dc/elements/1.1/" xmlns:ns2="http://creativecommons.org/ns#" xmlns:rdf="http://www.w3.org/1999/02/22-rdf-syntax-ns#" viewBox="0 0 357.62 346.242"><metadata><rdf:RDF><ns2:Work rdf:about=""><dc:format>image/svg+xml</dc:format><dc:type rdf:resource="http://purl.org/dc/dcmitype/StillImage" /><dc:title /></ns2:Work></rdf:RDF></metadata><defs /><g transform="translate(-132.55497,-119.05225)"><g transform="matrix(0.70710678,-0.70710678,0.70710678,0.70710678,-96.829545,283.91413)" style="stroke:#ffffff"><rect width="160" height="387" rx="80" ry="80" x="209" y="-492" transform="scale(1,-1)" style="stroke:#ffffff;stroke-width:2.5;stroke-miterlimit:4;stroke-opacity:1;stroke-dasharray:none" fill="currentColor" /><path d="m 209,300.14135 70.60248,70.65371" style="stroke:#ffffff;stroke-width:2.5;stroke-linecap:butt;stroke-linejoin:miter;stroke-miterlimit:4;stroke-opacity:1;stroke-dasharray:none" fill="currentColor" /><path d="m 340.67139,655.05298 a 71.20142,71.20142 0 1 1 -142.40284,0" transform="matrix(1.1235685,0,0,1.1235685,-13.746363,-337.68583)" style="stroke:#ffffff;stroke-width:2.22564507;stroke-miterlimit:4;stroke-dasharray:none" fill="currentColor" /><path d="m 340.67139,655.05298 a 71.20142,71.20142 0 1 1 -142.40284,0" transform="matrix(1.1235685,0,0,1.1235685,-13.746363,-352.47382)" style="stroke:#ffffff;stroke-width:2.22564507;stroke-miterlimit:4;stroke-dasharray:none" fill="currentColor" /><path d="m 280,106.5477 0,401.9947 18,0 0,-401.9947" style="stroke:#ffffff;stroke-width:3;stroke-linecap:butt;stroke-linejoin:miter;stroke-miterlimit:4;stroke-opacity:1;stroke-dasharray:none" fill="currentColor" /><path d="m 209,315.75089 70.60248,70.65371" style="stroke:#ffffff;stroke-width:2.5;stroke-linecap:butt;stroke-linejoin:miter;stroke-miterlimit:4;stroke-opacity:1;stroke-dasharray:none" fill="currentColor" /><path d="m 209,331.36043 70.60248,70.65371" style="stroke:#ffffff;stroke-width:2.5;stroke-linecap:butt;stroke-linejoin:miter;stroke-miterlimit:4;stroke-opacity:1;stroke-dasharray:none" fill="currentColor" /><path d="m 368.60425,300.14135 -70.60248,70.65371" style="stroke:#ffffff;stroke-width:2.5;stroke-linecap:butt;stroke-linejoin:miter;stroke-miterlimit:4;stroke-opacity:1;stroke-dasharray:none" fill="currentColor" /><path d="M 368.60425,315.75089 298.00177,386.4046" style="stroke:#ffffff;stroke-width:2.5;stroke-linecap:butt;stroke-linejoin:miter;stroke-miterlimit:4;stroke-opacity:1;stroke-dasharray:none" fill="currentColor" /><path d="m 368.60425,331.36043 -70.60248,70.65371" style="stroke:#ffffff;stroke-width:2.5;stroke-linecap:butt;stroke-linejoin:miter;stroke-miterlimit:4;stroke-opacity:1;stroke-dasharray:none" fill="currentColor" /><path d="m 213.55059,157.63364 66.05189,66.10312" style="stroke:#ffffff;stroke-width:2.5;stroke-linecap:butt;stroke-linejoin:miter;stroke-miterlimit:4;stroke-opacity:1;stroke-dasharray:none" fill="currentColor" /><path d="m 210.45232,169.95127 69.15016,69.39503" style="stroke:#ffffff;stroke-width:2.5;stroke-linecap:butt;stroke-linejoin:miter;stroke-miterlimit:4;stroke-opacity:1;stroke-dasharray:none" fill="currentColor" /><path d="m 209,184.30213 70.60248,70.65371" style="stroke:#ffffff;stroke-width:2.5;stroke-linecap:butt;stroke-linejoin:miter;stroke-miterlimit:4;stroke-opacity:1;stroke-dasharray:none" fill="currentColor" /><path d="m 364.05366,157.34318 -66.05189,66.39358" style="stroke:#ffffff;stroke-width:2.5;stroke-linecap:butt;stroke-linejoin:miter;stroke-miterlimit:4;stroke-opacity:1;stroke-dasharray:none" fill="currentColor" /><path d="m 367.34557,169.75762 -69.3438,69.58868" style="stroke:#ffffff;stroke-width:2.5;stroke-linecap:butt;stroke-linejoin:miter;stroke-miterlimit:4;stroke-opacity:1;stroke-dasharray:none" fill="currentColor" /><path d="m 368.60425,184.30213 -70.60248,70.65371" style="stroke:#ffffff;stroke-width:2.5;stroke-linecap:butt;stroke-linejoin:miter;stroke-miterlimit:4;stroke-opacity:1;stroke-dasharray:none" fill="currentColor" /></g><g transform="matrix(0.70710678,0.70710678,-0.70710678,0.70710678,310.85188,-121.71059)" style="stroke:#ffffff"><rect width="160" height="387" rx="80" ry="80" x="209" y="-492" transform="scale(1,-1)" style="stroke:#ffffff;stroke-width:2.5;stroke-miterlimit:4;stroke-opacity:1;stroke-dasharray:none" fill="currentColor" /><path d="m 209,300.14135 70.60248,70.65371" style="stroke:#ffffff;stroke-width:2.5;stroke-linecap:butt;stroke-linejoin:miter;stroke-miterlimit:4;stroke-opacity:1;stroke-dasharray:none" fill="currentColor" /><path d="m 340.67139,655.05298 a 71.20142,71.20142 0 1 1 -142.40284,0" transform="matrix(1.1235685,0,0,1.1235685,-13.746363,-337.68583)" style="stroke:#ffffff;stroke-width:2.22564507;stroke-miterlimit:4;stroke-dasharray:none" fill="currentColor" /><path d="m 340.67139,655.05298 a 71.20142,71.20142 0 1 1 -142.40284,0" transform="matrix(1.1235685,0,0,1.1235685,-13.746363,-352.47382)" style="stroke:#ffffff;stroke-width:2.22564507;stroke-miterlimit:4;stroke-dasharray:none" fill="currentColor" /><path d="m 280,106.5477 0,401.9947 18,0 0,-401.9947" style="stroke:#ffffff;stroke-width:3;stroke-linecap:butt;stroke-linejoin:miter;stroke-miterlimit:4;stroke-opacity:1;stroke-dasharray:none" fill="currentColor" /><path d="m 209,315.75089 70.60248,70.65371" style="stroke:#ffffff;stroke-width:2.5;stroke-linecap:butt;stroke-linejoin:miter;stroke-miterlimit:4;stroke-opacity:1;stroke-dasharray:none" fill="currentColor" /><path d="m 209,331.36043 70.60248,70.65371" style="stroke:#ffffff;stroke-width:2.5;stroke-linecap:butt;stroke-linejoin:miter;stroke-miterlimit:4;stroke-opacity:1;stroke-dasharray:none" fill="currentColor" /><path d="m 368.60425,300.14135 -70.60248,70.65371" style="stroke:#ffffff;stroke-width:2.5;stroke-linecap:butt;stroke-linejoin:miter;stroke-miterlimit:4;stroke-opacity:1;stroke-dasharray:none" fill="currentColor" /><path d="M 368.60425,315.75089 298.00177,386.4046" style="stroke:#ffffff;stroke-width:2.5;stroke-linecap:butt;stroke-linejoin:miter;stroke-miterlimit:4;stroke-opacity:1;stroke-dasharray:none" fill="currentColor" /><path d="m 368.60425,331.36043 -70.60248,70.65371" style="stroke:#ffffff;stroke-width:2.5;stroke-linecap:butt;stroke-linejoin:miter;stroke-miterlimit:4;stroke-opacity:1;stroke-dasharray:none" fill="currentColor" /><path d="m 213.55059,157.63364 66.05189,66.10312" style="stroke:#ffffff;stroke-width:2.5;stroke-linecap:butt;stroke-linejoin:miter;stroke-miterlimit:4;stroke-opacity:1;stroke-dasharray:none" fill="currentColor" /><path d="m 210.45232,169.95127 69.15016,69.39503" style="stroke:#ffffff;stroke-width:2.5;stroke-linecap:butt;stroke-linejoin:miter;stroke-miterlimit:4;stroke-opacity:1;stroke-dasharray:none" fill="currentColor" /><path d="m 209,184.30213 70.60248,70.65371" style="stroke:#ffffff;stroke-width:2.5;stroke-linecap:butt;stroke-linejoin:miter;stroke-miterlimit:4;stroke-opacity:1;stroke-dasharray:none" fill="currentColor" /><path d="m 364.05366,157.34318 -66.05189,66.39358" style="stroke:#ffffff;stroke-width:2.5;stroke-linecap:butt;stroke-linejoin:miter;stroke-miterlimit:4;stroke-opacity:1;stroke-dasharray:none" fill="currentColor" /><path d="m 367.34557,169.75762 -69.3438,69.58868" style="stroke:#ffffff;stroke-width:2.5;stroke-linecap:butt;stroke-linejoin:miter;stroke-miterlimit:4;stroke-opacity:1;stroke-dasharray:none" fill="currentColor" /><path d="m 368.60425,184.30213 -70.60248,70.65371" style="stroke:#ffffff;stroke-width:2.5;stroke-linecap:butt;stroke-linejoin:miter;stroke-miterlimit:4;stroke-opacity:1;stroke-dasharray:none" fill="currentColor" /></g></g></svg>
